# xmcd
# 
# Track frame offsets:
#     150
#     14291
#     41165
#     51400
#     58886
#     76350
#     81104
#     89960
#     114482
#     138420
#     144179
#     167394
# 
# Disc length: 2377
# 
# Revision: 1
# Processed by: cddbd v1.5.2PL0 Copyright (c) Steve Scherf et al.
# Submitted via: fre:ac v1.0.31
# 
DISCID=a209470c
DTITLE=Todd Rundgren - Runddans
DYEAR=0
DGENRE=Rock/Pop
TTITLE0=B For Birth
TTITLE1=Liquid Joy From The Womb Of Infinity
TTITLE2=Oppad, Over Skyene
TTITLE3=Solus
TTITLE4=Put Your Arms Around Me
TTITLE5=Altar Of Kauaian Six String (Todd's Solo)
TTITLE6=Out Of My Head (Lone Vibes)
TTITLE7=Rundt Rundt Rundt
TTITLE8=Wave Of Heavy Red (Disko-Nektar)
TTITLE9=T.H.E. Golden Triangle (Dry Mouthed Gargoyles In A Fountain Of Fluorescent Shepard Tones)
TTITLE10=Ravende Gal (Full Circle)
TTITLE11=Ohr.. Um.. Am.. Amen (Aftermath)
EXTD=
EXTT0=
EXTT1=
EXTT2=
EXTT3=
EXTT4=
EXTT5=
EXTT6=
EXTT7=
EXTT8=
EXTT9=
EXTT10=
EXTT11=
PLAYORDER=
